<svg width="1024" height="1024" viewBox="0 0 1024 1024" fill="none" xmlns="http://www.w3.org/2000/svg">
  <defs>
    <linearGradient id="bg" x1="128" y1="120" x2="896" y2="904" gradientUnits="userSpaceOnUse">
      <stop stop-color="#1E6EEB"/>
      <stop offset="1" stop-color="#2EC5A7"/>
    </linearGradient>
    <linearGradient id="card" x1="244" y1="196" x2="760" y2="784" gradientUnits="userSpaceOnUse">
      <stop stop-color="#FFFFFF" stop-opacity="0.98"/>
      <stop offset="1" stop-color="#EEF7FF" stop-opacity="0.92"/>
    </linearGradient>
    <filter id="shadow" x="138" y="138" width="748" height="748" filterUnits="userSpaceOnUse" color-interpolation-filters="sRGB">
      <feFlood flood-opacity="0" result="BackgroundImageFix"/>
      <feColorMatrix in="SourceAlpha" type="matrix" values="0 0 0 0 0 0 0 0 0 0 0 0 0 0 0 0 0 0 127 0" result="hardAlpha"/>
      <feOffset dy="26"/>
      <feGaussianBlur stdDeviation="26"/>
      <feComposite in2="hardAlpha" operator="out"/>
      <feColorMatrix type="matrix" values="0 0 0 0 0.012 0 0 0 0 0.161 0 0 0 0 0.38 0 0 0 0.18 0"/>
      <feBlend mode="normal" in2="BackgroundImageFix" result="effect1_dropShadow_1_1"/>
      <feBlend mode="normal" in="SourceGraphic" in2="effect1_dropShadow_1_1" result="shape"/>
    </filter>
  </defs>

  <rect x="96" y="96" width="832" height="832" rx="192" fill="url(#bg)"/>

  <g filter="url(#shadow)">
    <path d="M256 228C256 198.177 280.177 174 310 174H714C743.823 174 768 198.177 768 228V614C768 643.823 743.823 668 714 668H508L396 768V668H310C280.177 668 256 643.823 256 614V228Z" fill="url(#card)"/>
    <path d="M396 768L501 668H446L396 713V768Z" fill="#D2E9FF"/>
  </g>

  <rect x="322" y="258" width="380" height="64" rx="32" fill="#DCEBFF"/>
  <rect x="322" y="356" width="236" height="56" rx="28" fill="#EAF6FF"/>
  <rect x="322" y="444" width="208" height="56" rx="28" fill="#EAF6FF"/>

  <text x="332" y="588" font-family="PingFang SC, Hiragino Sans GB, Microsoft YaHei, sans-serif" font-size="176" font-weight="700" fill="#184FBA">译</text>
  <text x="560" y="585" font-family="Avenir Next, Helvetica Neue, Arial, sans-serif" font-size="176" font-weight="700" fill="#1D2C4A">A</text>
</svg>
